<?xml version="1.0" encoding="UTF-8"?>
<!-- Created with Inkscape (http://www.inkscape.org/) -->
<svg width="6434.6" height="6349.7" version="1.1" viewBox="0 0 6434.6 6349.7" xmlns="http://www.w3.org/2000/svg">
 <path transform="matrix(.13333 0 0 -.13333 0 6349.7)" d="m4564.4 38509c35.85-115.3 126.68-357.1 179.28-417-148.88-59.3-160.27-160.1-215.9-285.9-223.12-502.6 72.21-654.2 444.6-1051.5 90.86-96.9 176.94-188.5 288.72-259l60.98-35.6c352.72-165.4 539.92 113.2 962.54-264.4 159.61-143 128.52-110 213.96-382.8 59.15-189.7 133.28-264.2 195.41-466.4l109.34-357.8c71.69-234.5 73.45-386 133.19-604.8 62.14-229.2 10.71-285.9-101.74-476.2-208.14-353.1-508.99-888.6-567.08-1307-53.3-385.3 123-767.5 292.72-1112.1 311.96-635.1 897.82-956 1248.1-1559.6 93.83-161.4 176.3-333.4 286.28-479 109.38-144.9 196.65-245.7 302.44-400.6 537.93-790.6 836.9-691.9 1494.5-1055.7 65.17-36.2 119.59-71.1 185.89-101.5 407.8-188.5 811.3-373.7 1242.9-498.9 94.5-27.1 122-42.2 213.5-82.4 362.8-160.2 920.6-269 1284.7-448.9 195.5-96.3 381.4-212.3 584.7-288.1 70.5-26.3 147.7-42.8 212.2-87 353.3-241.2 340.8-149.6 612.2-269.5 41.9-17.8 54.4-28.4 95.7-45.5 50.8-20.5 58.5-17.8 114.7-45.5 483.7-238.6 889.6-562.8 1304.4-918.6 73.6-63.3 110-110.7 172.2-176l-622.4-52.5c-208.7-31.6-444.3-88.9-662.5-100-423.3-22.3-808.4-3.1-1219.1-5.7-593.1-3.1-1201.7 36.5-1793.6 90.7-206.9 18.5-388.1 27.1-593.7 52.8-849 104.9-1359.6 77.4-2297 302.2-183.54 43.5-347.35 96.9-530.3 151.7-193.7 57.3-347.35 108.1-534.47 185.2l-905.11 394.8c-246.94-8.5 189.4-575.2 253.93-769.5 133.25-399.9 271.9-663.5 530.73-922.4 240.89-241.2 491.99-291.3 832.19-296.7 505.21-8 730.62-2.1 1237.6-81.9 205.66-31.7 369.47-101.6 579.97-126 232.5-27 378.4-25.8 601.4-79.2l865.1-181.3c445.4-100.9 1174.3 68.2 1625.1 51 450.8-17.9 782.6-140.5 1248.4-57.6 897.4 158.6 945.2-115.5 1814 337.6 79 41.5 202.1 52.6 281.1 70.4 310.3 70.4 299.5 102.7 553 26.9 20.9-243.1-334.9-608-540-683.7-254.8-94.8-450.3-78.3-1020.1-294.2-336.6-127.1-668.5-193.6-1000.9-249.5-298.4-50.7-651.1-101.3-933.9-102.6-300.2-1.2-583 19.2-881.9 14-540.5-8.4-736.6-91.4-1354.2-48.4l-1269.3 139.9c-208.09 31.7-410.78 33.7-603.87 116.1-101.64 42.9-174.57 68.6-275.62 31-330.66-122.4 742.39-942.2 837.39-1013.4 206.3-154.2 346.1-340 578.7-472.4 352.7-200.4 266.6-180.6 690.5-225.5 104.6-11.2 213.4-13.9 321.1-15.2 552.4-6.1 1274.6-12.8 1803.2 149.8 232.6 71.8 447.9 274.6 997.9 239.6 103.5-6.6 187.2 1.3 288.2-2.7 89.1-3.3 205.1-23.1 312.1 5.8 5.4-97.5-113.6-273.3-161.5-380-62.2-138.4-117.8-253-177.1-392-36.4-85-33.5-119.9-68.2-196.9-82.5-183.8-205.7-377.5-276.3-572.5-103.5-287.8-83.8-559.3-222.6-835.9l-239.9-571.1c-34.1-94.9-51.4-106.7-77.1-212.8l-109-642.3c-107.8-814.9-54-749-283.1-1526.3l-317.7-783.9c-198.6-561.9-739.3-1423.5-813.5-1959.7-150.3-1081.7-22.4-935.5-413-2156.8-91-283.9-207.6-523-228.6-832.7-36.6-542.1-13.3-452.5 6.9-961.1 13.7-338.7-126.8-658.8-131.1-1141-7.4-792.5 696.9-934.3 1223.6-1142 163.2-64.6 650.4-302.5 815.4-291.3 43.1-140.3 39.4-293.8 44.8-428.2 43.4-1131.8 157.6-1046.9-437.4-1420.9-223-140.3-355.8-341.9-515.5-548-86.1-110.7-154.3-183.8-249.3-289.2-92.1-102.1-156.7-179.1-235.1-276-100.5-124.5-418-443.9-556.1-525.6-126.8-74.4-249.4-129-366-225.2-119.6-98.1-157.3-166.6-233.8-276.6-89.1-128.5-148.3-166-258.4-284.6-61.6-66.5-58-74.4-99.8-137-165.7-247-284.1-264.1-173-629.1 98.6-322.1 211.6-312.9 463.3-301.1 349.8 15.7 623 107.2 975.8 238.2 238 88.3 150.7 88.9 429.9 139.6 334.9 60.5 569.2 51.9 850.9 288.4 117.2 98.7 165.1 166.6 309.8 256.2 734.3 455 646.3 310.8 1237.1 536.6 415 158.7 869.9 38.7 1260.4 183.5 131.5 49.4 535.8 380 613.5 473.6 208.7 250.3 52.2 925.5-23.6 1225.3-44.8 178.5-52 303.7-87.8 452.6-105.7 439.4 92.7 368.9 179.6 1135.7 24 208.2-23.3 281.3-19 414.4 2.4 73.8 117.2 237.8 154.3 320.1 56.2 124.5 79.6 234.5 114.3 363 30.5 114.6 59.8 235.2 94.5 352.4 92.7 315.6 58.7 444 89.2 760.3 22.8 233.2 265.7 851.7 374.6 1028.9 74.7 123.2 248.2 503.2 296.6 646.9 39.5 118.5 74.2 219.3 107.1 345.1l287.9 1077.1c169.3 501.3 413.3 739.1 534.2 1345.8 71.8 360.3 123.3 733.2 247.1 1077.7 41.3 115.9 101.1 228.6 152.6 341.9 174.6 384.7 102.9 610 377.4 1006.5 201 290.5 366.1 617.2 582 894.5l311 447.9c312.8 500 261.4 561.2 407.9 797.7 76 122.5 129.8 172.6 227.3 280 128.6 142.2 200.3 294.4 300.8 452.5l503 746.9c282.3 400.5 519.7 822.7 872.6 1161.3 255.9 245 445.5 583.6 620.8 894.5 67.6 119.2 540 756.1 659.6 874 71.8 70.5 209.3 188.4 256.6 264.2 172.2 277.9 281.7 710.1 432.5 997.3 199.2 380.7 303.2 546 491.6 965 266.2 591.5 284.2 737.1 638.3 1268.7 223.6 335.9 554.4 855.6 682.4 1264.7 35.9 114.6 91.5 218.7 140 328 52 115.9 113 195.6 183 304.3l395.4 613.9c721.9 1206.8 557.4 775.3 1415.5 1673 95.1 99.5 148.9 166 255.4 264.2 305 281.9 615.3 482.1 990.2 672.4 366.6 185.7 1035.1 629.5 1410.6 867.3 434.2 275.3 1380.2 1113.7 1770.1 1500.3 515.5 511.1 430 485.4 723.6 817.4 83.8 94.8 144.7 179.8 241.6 272.7 53.3 51.4 70 74.4 118.4 126.4 294.3 318.2 628.6 613.9 895.3 957.7l416.2 581c155.5 200.2 298.5 393.9 449.8 583.6 222.5 277.9 468.8 546.7 675.8 843.7 278.1 398.5 559.8 787.8 870.1 1162.6 47.3 58 80.8 86.9 123.8 144.9 186.6 252.9 345.1 485.4 598.7 694.9 210.5 173.9 439.5 300.3 649.4 474.8 248.2 206.8 640.5 573 910.7 714.6 457.5 239.7 752.9 663.3 1116.5 1028.1 83.7 83.7 174 213.4 166.9 334.7 119.6 44.1 244 99.4 364.1 123.7 403.6 81.6 715.2 247.6 1054.2 462.9 267.3 169.3 1015.9 464.3 1067.9 499.8 207.5 138.3 438.4 314.2 672.8 393.8 295.3 100.8 362.3 43.4 655.9 264.7 427.6 321.4 45 742.5-1.6 894.6-41.8 137.1-19.7 233.3-62.7 374.2-38.8 127.2-253.5 237.9-287.5 348.6-176.9 578.5-15.5 460.5-566.7 585.1-188.3 42.9-276.8-46.7-437.6-28.2-275.7 31.7-321 275.4-887.9-203.4-107.7-90.9-212.9-154.7-324.2-248.3-519-436-684.1-760.7-1300-882.5-380.8-75.6-899.2-269.9-1292.7-341.6-541.1-99.3-1093.5-202.7-1641.2-257.9-146.5-14.4-263.7-49.3-423.3-82.2-882.6-184.3-1231.2-294.2-1892-1027.3-282.2-313.5-414.5-673.2-717.1-970.3-287-281.2-468.2-661.9-730.2-962.3-196.1-223.9-419.2-449.8-604-690.9l-1045.4-1152.7c-363.6-357.6-1122.4-906.2-1546.4-1197.3-90.3-61.9-177.6-117.2-273.2-191-277.5-212.7-587.8-335.8-864.7-548.6-729.5-559.1-431.2-350.3-944.2-437.2-487.3-82.2-461.6-168.5-817.4-366.1-313.9-175.2-576.4-281.2-900.5-401.7-161.4-60.5-287-135.6-477.7-207.4-472.4-178.4-407.8-45.3-845.5-409.6-784.6-652.6-884.4-431.3-1533.7-672.9-272.7-100.7-431.8-236.4-703.2-318l-734.3-215.3c-122-38.2-203.3-27-348-108-139.3-77.7-142.3-144.2-298.3-84.9-87.3 33.6-181.2 64.6-270.9 85.7l-304.9 51.5c-23.8 269.4 213.6 652.1 152.1 852.4-128.5 420.3-252.2 675.3-557.1 907.3-215.8 164-382.5 301.1-610.9 444.8l-308.5 172c-475.3 190.5-1229.7 672.2-1675.7 738.2-134.5 19.8-250.5 28.4-377.9 62-126.7 33.6-233.7 78.4-360.5 100.2-128.5 21.8-255.2 27.1-380.2 56.1-250.5 57.4-516.6 46.2-760.5 110.8-126.7 33.7-234.3 78.5-360.5 100.2-245.7 41.6-496.2 46.3-744.9 105-683.4 160.8-830.5 156.9-1532.4 154.4-293.6-0.6-556-34.1-842.4-69.6-276.3-34.2-561.5-42.1-836.5-100-246.9-52-1124.7-223-1311.2-209.8-245.1 17.2-536.3 1.4-755.1 123.3-123.2 68.6-210.4 99.5-391 32.4l-171.5 476.3c-59.76 194.4 14.4 401.9-32.76 614 111.86 53.4 345.06 201.5 460.46 211.4 553 48 688.8 168.5 1134.3 512.3 95.6 73.8 156.6 139 235.6 212.1 100.4 92.2 160.2 122.5 145.9 281.9-95 61.3-111.8 60-213.4 11.9-139.9-65.9-163.3-93.5-276.9-118.5-290-65.2-321.6-27-545.9-50.6 37.7 129.1 47.9 67.2 78.4 254.9 34.1 206.2 159.7 242.4-18.4 393.3 71.1 52 95.7 119.2 156.7 191 64.6 77.1 105.8 135.7 128.6 227.3-100.5 104.7-154.9 76.4-276.3 73.1-5.9 0-13.7 0.1-19.1 0.1l-37.6 2.6c130.3 88.9 209.8 196.3 294.8 306.9l514.9 675.8c52.6 80.4 226.7 272.1 192 384.7-95 309.7-720-735-1579.8-893.6-131.5-24.4-140.5-54.7-189.5 94.2 43 29.7 42.4 23.7 71.7 67.2l36.5 87c-52 91.5-96.8 133.7-194.2 127.2 20.3 81.6 31.7 90.9 46 187-56.2 58.7-35.2 57.4-114.7 89-10.81 4.6-48.47 14.5-67.6 21.1-38.26 13.2-36.47 12.5-65.76 25.7 133.96 53.3 428.76 231.1 517.26 334.6l-38.9 127.8c-169.2-18.4-479.51-206.8-710.91-293-138.72-51.4-519.57-22.3-663.06-15.1-230.18 11.3-613.38 234.7-860.29 319.1-962.53 330.3-612.26-105.9-1257.4-47.8-218.22 19.8-477.12-54.6-686.99-108.6-99.26-25-166.23-77.7-408.99-135.6-248.13-58.6-580-246.3-739.08-447.2-107.66-136.3-214.71-270-327.74-416.2-116.02-151.5-360.1-778.6-361.93-972.3-1.22-116.6-11.99-173.3-19.79-287.2-58.78-848.5 68-735.3 154.57-1276.1 20.31-125.2 52.57-219.4 91.4-347.9zm4432.2 2812c-108.22-29.6-365.9 27.8-456.77 58.1-435.23 143.7-451.94 303.2-576.9 309.8-142.89 7.9-107.04-78.4-226.63-121.2-78.92-28.3-190.72-5.2-251.71-26.3-261.3-89.5-296.59-152.8-681.58 54.2-396.95 213.5-1105-240.2-1304.6-197.4-145.29 31-76.52 46.2-261.29-22.3l65.79 91.5c182.4 214.8 177.6 143 336.05 154.8 167.41 11.8 133.94 84.9 255.32 140.3 109.43 50 730.07 201.4 872.35 137.4 59.19-26.3 139.28-127.8 193.68-170 335.96-259.6 498.67 115.2 733.65 167.2 133.33 29.6 136.31-7.9 287.59 42.8 117.19 38.8 192.53 55.9 291.78 47.3 119.57-10.5 210.43-102.1 471.1-153.6 83.1-16.5 171.59-36.9 243.33-60.6l232.56-84.4c-192.54-71.8-526.16-75-681.01-53.9 49.6-125.8 123.14-113.3 220.59-154.2 105.81-44.1 152.44-87.6 236.73-159.5zm-3759.5 54.9c-23.32-37.6 56.2-7.9-61.59-51.4 20.93 33.6-31.69 6.6 61.59 51.4zm-684.3-1477.5c81.85-268.2 142.3 11.8 136.81-500.1-1.83-157.4 22.02-440.7 75.2-616l-22.72-8.5c-74.09 241.1-40.67-25-133.24 434.8-48.98 242.5-9.49 369.6-24.42 417-27.49 90.9-89.66 125.9-108.78 187.1-31.06 102.2-16.03 504.7 50.34 542.2 177.6 101.4 10.68-402.5 26.81-456.5zm4443.8 1422.6m1309.2-481.2c129.7-215.4 556.7 145.5 456.7-504.7-0.6-5.3-2.4-15.1-3-19.7-0.6-4-1.8-12.6-3.6-19.2 36.5-50 44.9-14.5 84.9-71.1 32.9-46.1 25.1-79.7 6-125.2-10.8-27-106.5-164-134-205.5-245.2-377.4-73.6-363.6-240.4-443.3-67 236.5 94.5 509.2 214.1 648.9-57.3 79.7-60.9 23-108.2 102.1 30 122.5 98.7 222.6 60.5 391.9-45.4-4.5-258.3 12-297.1 25.8-61.6 21.8-188.9 129.2-214 210.9-86.1 281.3 640.4 571.6 755.8 650.7 65.2-290.6-384.5-549.4-577.7-641.6zm-4671.3-3042.5c-124.94 80.4-347.26 530.4-419.59 612.1 69.96-2 81.91-28.4 147.05-144.3 113.61 54 38.27-4.6 73.56 66.5 55.03 110 2.44 227.9-81.85 299.8 87.91 94.8 131.56 74.4 105.88 239.7-26.86 177.2-23.28 141 94.52 246.4 163.86 146.2 52.09 339.9 315.18 444.6 59.17-98.2 54.4-32.3 178.14-160.8 202.7 75.1 183.57 72.5 352.77 53.3 196.1-22.4 170.41 72.4 281.04 153.4 193.7-58 371.26-127.2 609.22-104.2 388.63 38.2 279.81-27.7 437.62-143 72.93-54.1 55.01 4.6 122.55-115.3l129.16 81c66.34-70.5 74.71-89 164.39-118 132.72-42.8 87.29 1.3 185.96 73.1 34.06-87 92.64-141.7 153.02-174 84.89-44.8 148.27-19.1 226.59-54.7-38.28-56.6-29.3-15.1-23.34-94.2 224.82 61.2 270.82-102.8 505.2-79.8 139.31 13.8 257.7 59.9 433.48 63.8l129.14-13.9c-394.64-146.8-654.75-273.2-1084-134.8-709.05 229.4-750.82 562.8-1767.2 620.3-611.04 35.1-754-287.7-1056.5-31.4-69.37-73.7-170.42-140.3-219.5-347.8-27.52-118.5 6.55-135 11.31-240.4 6.54-155.5-26.32-51.4-130.37-162.7-22.77-205.5 65.72-210.8-68.24-366.9 29.29-33 173.9-399.3 194.81-467.8zm-819.17-275.9c76.48-251.6 247.45-372.2 364.01-478.3 89.07-80.4 152.99-324.2 450.16-243.2-296.5 251-182.34 94.2-248.63 390.7 147.68 40.1 178.15-75.2 252.26-210.9 99.81-181.8 240.32-133.8 267.2-221.4 63.33-206.2-463.41-210.7-651.7-32.8-72.33 67.9-62.16 73.8-121.34 159.5-66.94 96.2-90.26 81.7-148.24 141.6-63.37 65.9-60.37 114-112.37 179.9-106.99 137.1-75.94-28.3-182.88 322.9-43.61 141.6 23.36 194.3 78.97 254.2 52.63 56.7 160.9 290.5 374.3 66.5 75.91-79.1 107.59-128.5 150.01-267.5-84.91-55.3-111.22-51.4-205.07 15.8-104.02 75.2-71.73 104.8-205.65 144.4-59.2-68.5-98.67-98.2-61.03-221.4zm3894.4 1531.5 53.81 4.6zm-3075.2-1255.6 41.84-40.2zm-455.11-538.8c-23.9 77.7 31.69 29 40.05-7.3 22.11-89.6-36.47-3.9-40.05 7.3zm1264.3-1009.5m0 0c328.25 22.9 644.43-446.2 876.96-668.9 226.55-218.1 210.4-278.1 337.13-365.7 95.64-65.2 856.74-145.8 956.59-148.4 205.67-6 507.06 231.1 624.86 357.6 396.5 426.8 378.05 812.1 676.46 1119.1l112.41 172.6c1.8 5.2 4.8 12.5 6.6 17.7 42.5 92.3 77.2 116.6 119 233.2 40.1 110-6.5 87 77.8 148.9-67.7-605.4-99.4-583.7-403.22-1119.9-51.44-90.9-39.48-70.4-73.58-172.5-134.01-399.9-136.36-218.7-438.96-526.3-269.71-274.7-1138.5-708.6-1424.9-551.1-125.54 69.2-110.57 186.5-197.23 334.7l-522.46 425.7c-129.72 108.7-122.54 138.4-224.75 272.8-60.97 79.7-54.39 52.7-123.73 111.3l-242.1 234c-66.35 56-93.86 53.3-136.89 125.2zm3595.2 652c-30.4 136.4-16.7 189.8 107.7 239.1-9.6-36.8-25.1-96.1-36.5-129.1-26.3-81 3.6-54.6-71.2-110zm7241-126.7c-184.7-50.7-633.1 24.5-825.1 53.5-147.6 23.1-246.9 39.6-403.5 46.9-165.6 7.9-284.6-17.7-459.8-33.5-422.7-38.8-354.5 96.3-850.2 41.7-479.5-53.3-161.5-200.9-840.7-453.7 23.3 82.3 244 368.8 321.2 484.1 7.1 11.2 50.2 78.4 50.8 79 39.5 86.3 40.1-3.3 12.6 120.6-318.1-34.2-403-73-648.8-262.7-102.2-79.1-133.9-136.4-233.8-212.8-38.3-28.9-279.9-154-337.9-177.1l49.1 58.6c195.5 214.7 380.9 293.8 428.8 488.8-168 142.9-430.5 36.9-618.8-65.8-308.6-169.2-196.2-179.8-602.2-330.6l-15.5 50.8c84.9 40.8 154.3 129 259.5 198.9 386.9 256.1 864.7 547.9 1335.2 427.2 102.2-26.4 200.3-32.3 312.1-35.6 340.8-9.3 469.9 75.6 969.1-35.2l2048.3-425.3c56.2-17.8 15.5-2 49.6-17.8zm-6109.9-533.6m-46.1-102.8c-4.7 83.7-17.3 56 46.1 102.8zm0 0-14.9-34.2zm-3642.9-2775.3c131.53-45.5 399.9-390.1 509.28-541.6 89.06-123.9 126.1-258.3 201.4-409.8 71.72-142.4 166.17-209.6 243.27-318.3 123.73-173.9 230.08-485.6 447.07-722.1 184.7-201 341.32-350.6 543.96-507.4 114.18-87.6 142.26-181.9 263.01-273.5 514.71-390.1 379.01-268.8 841.71-703.7 84.3-79.1 185.3-176 277.3-241.9 103.5-73.8 206.3-90.9 302.5-185.8l522.5-555.5c171.6 63.9 196.7 119.2 248.8 332 58 237.2 43.1 271.4-206.8 618.6l-417.2 532.4c-255.8 440.2-291.5 985-244.2 1472.5 26.4 273.4-84.3 192.4 2.5 721.3 34.2 206.9 107.2 418.4 57 693.1-33.5 181.2-32.2 311.6-39.4 488.8-5.3 135.7-8.9 381.4-69.8 515.8-273.7 606.2-126.6 598.3-111 987.6 16.8 417.7 159.7 341.2 205.2 611.3 18 105.4-1.2 146.2 50.9 227.3 44.2-199-105.9-328.7-51.6-950.6 22.6-255.7 61.5-169.4 41.1-511.9-21-346.5 38.6-1131.8 55.3-1519.2l33.2-1017.8c0.6-178.6-25.7-296.5-7.8-484.9 17.3-185.8 36.4-339.3 54.8-519.8 60.9-594.2 527.7-1338.1 1077.7-1546.4 68.2-25.7 110-50.7 178.2-76.4 66.3-25.1 129.1-46.2 199.6-71.2 126.2-45.5 271.5-112.1 373.7-199.1-29.9-122.5-126.2-191-197.4-295.7-29.3-43.5-58-96.2-87.9-143.6-295.5-471-275.8-565.2-608.8-689-174 147.6-459.7 423.7-594.8 608.2-637.1 871.1-820.1 656.3-1470.5 1151.9l-285.75 352.5c-105.19 181.2-39.42 206.9-282.72 357.8-69.35 43.5-100.44 53.4-166.19 102.1-109.99 81.1-223.58 137.1-340.15 232-494.37 402-754.91 1039.1-1051.9 1609.6-231.29 445.4-297.04 516.6-496.06 870.4zm-193.69 127.2 8.97-4.6c-0.6 0-10.76 1.3-8.97 4.6zm193.69-127.2m9853.3 3403.1-54.4 8.6zm0 0 53.8 4.6zm77.2 0.7 9.5-5.3c-0.6 0.6-10.7 2-9.5 5.3zm54.4-8.6 8.9-4.6c-0.6 0-10.7 1.3-8.9 4.6zm84.9-25.1m54.4-8.5-54.4 8.5zm53.8-8-53.8 8zm54.4-8.5 9.5-5.3c-0.6 0.6-10.7 2-9.5 5.3zm54.4-8.6 8.9-4.6c-0.5 0-10.7 1.3-8.9 4.6zm-4442.2-2104.5m3030.3-1804.4c-135.1-14.5-475.9 98.2-634.3 135.8l-661.2 160.2c-576.4 116.8-502.2 138.5-1034.8 918.6-96.2 141.7-203.8 256.3-324 351.9-132.1 105.4-269 147.6-376 237.9 125 13.1 315.7-49.5 414.9-107.5 170.4-99.5 197.3-217.4 302.5-401.3 75.3-131.7 223.5-276.7 324-352.5 62.1-46.8 111.1-77.8 172.1-132.4 284-253.1 37-230 541.6-427.1 75.9-29 119-49.4 198.5-73.1 111.8-33 177-17.2 438.8-97.6 77.7-23.8 138.7-59.3 219.4-70.5 101.1-13.3 126.2 15.1 220.6-23.8 74.2-30.3 139.3-69.2 197.9-118.6zm19650 9857.7c23.4 43.5 24.6 46.8 67.6 90.9l267.9 236.4c133.4 110.7 243.4 198.9 419.2 303 166.2 98.1 325.3 134.3 516.6 177.8 169.8 38.8 354.6 51.3 536.4 119.1l15.5-51.4c-96.9-36.2-126.2-67.2-210.5-118.5-313.9-193-609.9-278.6-743.8-359.6-285.3-173.2-125.1-318.8-868.9-397.7zm7549.6 2917.4c262.5 96.8 350.4 46.1 510 18.4 54.4-9.9 108.2-15.2 163.2-24.4 40-180.5 1.2-89.6 86-366.3 66.4-217.5 268.4-287.3 295.3-374.3 34.1-112-22.7-179.2 16.1-307 32.3-106.1 554.1-639.1-301.5-754.9l-114.2 3.3c113.6 45.5 145.9 83 409.6 180.4 67.6 273.4-34.6 376.9-295.3 330.8-133.3-23.7-261.3-53.3-394-102.7l70.5 67.9c359.4 254.2 603.9-77.2 462.3 385.9 38.9 45.5 44.2 55.4 99.9 94.2-130.9 217.4-491.5 101.6-773.1-3.1 3.6 5.2 7.8 19.1 11.4 14.5l130.9 120.5c155.5 129.7 174 145.6 359.4 165.3-57.4 146.2-62.8 36.2-93.3 135.7-38.2 124.5 59.2-24.4-23.8 247.1-25.1 82.3-41.3 45.4-148.3 57.3l-35.9 5.3c-173.3 25.1-202-6.6-403.5-81.6 44.2 83.6 71.1 83.6 169.8 119.8-98.7 76.5-90.3-18.4-201.5 67.9zm-7549.6-2917.4-35.8-46.1zm824.2-1344.1c-22.6 262.2 205.3 915 403.9 1247.7 64.6 107.3 176.4 281.2 148.3 408.4-171.6-63.9-299.5-161.4-397-315.5-126.8-202.2-264.9-30.2-480.2-248.3-125.6-126.4-66.4-194.3-318.7-357.6-153.1-98.8-140.6-121.2-215.9-110.6-98.6 13.2-225.9 197-400.6-63.2-272.1-405.1-479-551.3-409.2-1159.4 20.3-175.2 65.1-440.7 102.7-608.7l-190.1 264.2c-66.9 116-86 212.2-198.4 245.8-7.2-67.2 12.5-208.9 40-298.5-124.4 37-55.6 65.3-209.3 93-118.4-169.3-122.1-601.5-75.5-767.5-133.9 47.5-45.4 118.6-168.5 314.3-37.6 60.6-53.8 94.9-112.4 52.1-44.8-32.3-47.8-91-44.3-145.6-6.5 0-17.9 10.5-18.5 4.6-20.4-141.7-8.9 152.2-166.8-73.8-41.8 477.7 79.6 501.4 381.6 834 305.6 336.5 373.2 586.2 860.6 1125.6 368.4 407.8 224.3 462.5 570 752.3 251.1 210.1 338.4-4.1 726.5 262.7 93.2 63.2 107 112.6 184.7 175.2 87.4 71.1 379.7 179.7 518.5 248.9 153 75.7 323.5 189.6 462.8 278.5 258.3 164.7 189.6 130.4 484.3 183.1 167.4 29.6 349.8 52.6 520.2 83.5l1228.7 70.2c238.5 22.4 168.6 50.1 246.3-10.6-599.7-239-335.5-318.1-1207.8-323.8-295.4-1.9-896.2-7.7-1185.1-240.9-367.1-296.3-658.4-959.7-857.6-1403.7-39.5-86.9-82.6-167.9-114.3-256.9-40.1-113.9-39.5-160-108.9-259.5zm-17368-4999m31.1-16.5-31.1 16.5zm54.4-8.6-54.4 8.6zm0 0c291.8 79.7 597.3-185.9 770-304.5 84.9-58.7 150.7-104.8 233.8-168.1 221.7-168.7 332.9-327.4 440.5-393.3 128.5-77.8 157.8-11.3 294.8-31.1 123.7-17.8 141.6-105.4 221.1-195.7l-139.3-242.4c-178.3-338.6 236.7-222.7-66-878.8-99.9-218-196.8-732.5-214.2-989.4-1.8-22.4-1.8-59.3-4.8-82.4-9.6-71.8 0-29-17.4-75.7-185.8 606.7-134.9 1041.5-28.9 1611.4 58 310.9-28 614.6-356.9 495.4-167.4-60.5-203.9-146.8-367.7-181-130.4-27.7-302.6-70.5-420.4-114.6l98.7 94.9c488.6 351 147.7 127.1 380.4 579.6 153.7 298.4-40.6 465.1-347.2 647.7zm22963 6707.4c350.4 129.7 348.1 495.3 854.5 311.4 32.9-11.9 40-15.2 65.1-27-115.4-78.4-177.6-81-312.1-148.2-89.1-44.8-190.1-111.9-291.2-160-89.1-42.8-231.4-132.4-289.4-151.5-72.4-23-181.8 4-297.2-38.8-107-40.1-148.9-100.7-260.7-156.7-108.8-54-157.2-46.1-241-143.6 2.5 131.1 68.2 100.8 155.5 212.8 73.6 94.8 79.1 471.7-137.4 519.1-153 33.7-168-156.7-213.4-7.8-17.9 57.3-82.4 663.4-326.9 646.3 19.1 79.1 38.3 143 29.9 238.5l55-49.4c5.4-3.3 41.3-106.7 169.3 76.4 162.5-531.1 56.1-436.8 141.5-715.5 52-170.6 190.1-30.4 220 92.2l74.8 341.9c54.5 204.2-25 227.9 50.9 355 43.7 73.2 194.4 204.9 293.1 244.4-20.4-70.5-104.7-172.6-163.9-357-95.8-301.1-155-578.4 92.4-874.9 80.7-96.9 200.9-256.3 331.2-207.6zm-1223.2 370.5-98.6 5.3c-1.8 0-41.9-5.9-44.9-5.9-135.7-17.8-147.1-158.8-291.2-400.5-53.8-90.9-50.9-149.5-128.6-206.2l304.5 706.2c52.6 92.2 71.1 134.3 133.9 224.6 35.3-124.5 35.9-223.4 124.9-323.5zm-31117-14742c-89.7-24.3-125.6-8.5-202.72 21.1l-194.89 83.1c-65.76 27.7-100.43 69.8-163.8 107.4-66.95 40.9-120.16 60-184.73 104.8-818.98 573.3-806.92 1056.9-1155.4 1379.1-108.2 100.1-194.86 247.1-260.59 407.8-109.36 268.2-216.36 386.1-204.97 488.2 217.03 15.1 221.72-408.5 491.9-708.9 195.46-218.1 359.85-392.7 528.99-669.5 285.69-467.8 131.5-171.9 438.79-268.8 65.16-20.5 115.38-33 186.53-57.4 188.92-65.3 550-174.7 695.9-298.6-147.11-50.7-325.87-4.5-453.82 20.5-121.36 23.1-346.75 110.8-435.83 104.2 75.91-64.6 139.27-130.4 219.98-197.7zm5547.1 5160.4m25538 9512.6c-19.7 65.2 35.9 17.8 13.8 5.2 0 0 8.3-76.4-13.8-5.2zm-25508-9529.1-30.5 16.5zm31.1-17.1-31.1 17.1zm0 0c150-27.1 364.6-173.4 457.9-313 170.3-254.4 288.7-261 395.7-451.4 104 76.4 53.8 160.7 6.6 315.6 68.8-20.5 60.4-34.3 110.6-55.4l90.9-11.9c41.2-135.7 62.7-148.9 101-247 110.6 41.4 90.9 53.3 177.6 94.8 106.3-324.2 491.4-59.4 736.5-466.6l-585.9 114.1c-377.3 56.7-822.1 193.9-1043.2 555.6l-217 247.7c-75.9 86.4-187.1 145.7-230.7 217.5zm21050 7560.9m4373.9 1567.6c1.8 3.3 8.4-1.3 9-5.3zm-26299-11501c-117.7-8.5-682.7 187.3-1147.9 152.5-524.3-39.5-338.4-110.6-759.9 156.3-247.4 157.5-418.4 424.3-464.4 753.1-16.7 121.8-71.6 361.6-38.1 488.8 42.4-139 125.5-345.3 187.6-440.1 73.5-111.4 173.4-193.1 241.5-321.6 136.9-257.6-3.1-415.7 585.8-415.1 406-0.1 354.6 9.8 724.7-105.6 132.7-40.9 586.4-197.1 670.7-268.3zm26416 11033c-62.8 19.8-42.4-31.6-93.2 135.7-27.5 90.3-29.9 202.9-8.9 281.3 33.4-117.9 17.9-141.6 102.1-417zm-7202.1-2617.8m7612.2 2542.6c92.1 173.9 64.6 118.6 265 216.7 127.3 62.5 190.1 123.1 360.5 186.3-26.3-90.9-4.2-48-104-113.9-65.2-42.8-106.5-66.5-168.1-99.4-123.7-67.2-215.8-138.3-353.4-189.7zm-25376-9537.6m1600.1 423.9 24.5-32.3c76.5-121.3 285-643.1 317.9-751.1 27.5-89.6-30.7-778-48.6-909.1-46.2-347.2 23.8-479-60-924.9-73.7-389.4-79.7-730.6-190.4-1172.6-69.4-280-32.4-416.4-73.7-597.5-35.9-157.5-116-208.2-121.4-401.9-7.3-243.1 44.7-214.7-251.3-501.2-54.4-52.7-50.2-63.3-114.8-107.4 34.1 139 120.2 166.6 244.7 525.7 78.9 226.6-2.4 349.8 62.3 646.9 40.1 187.1 121.4 252.9 141.8 603.4 15.6 270.7 62.2 67.8 65.3 644.9 1.9 272.1 73.6 364.3 122.1 592.9l85.2 1315.6-102.1 736.5c-60.3 197-12.5-65.2-101.5 332.1zm21398 7519.3c17.9 40.2 143.5 5.9 32.3 0.7-3 0-58.6-60-32.3-0.7zm-5566.5-6277c-7.8 129.1 100.5 278 190.2 364.3 73.6 70.4 110 66.5 145.3 154.7 46.7 115.3-25.7 83.1 116.6 170.6 40.1 24.4 276.3 102.8 211.8 355.7-50.8 195.1-173.4 60-279.8 323.6-38.8 96.8-50.2 164.7-95.6 259.6-187 392-406.4 691.8-338.7 1207.6 18 136.3 24.6 322.8 86.8 420.3 17.9-201-36.6-268.8 43.5-640.4 121.2-567.2 619.1-1361.2 1045.4-1315.8 129.8 185.7 83.1 131.7 144.2 346.5 20.3 71.8 33.5 112.6 62.8 178.5 35.9 79.7 37.7 105.4 64.6 177.9 87.9 235.8 196.1 92.1 298.4 217.9 54.4 65.9 68.8 303.1 83.8 402.5 342 93.5 186.5 0 502.3 215.4l-31.7 102.1c-260.1-96.8-256.5-73.7-508.2 157.5-190.7 175.3-218.2 276.1-321.5 614.8 75.3-62 203.8-312.4 482.4-472.5 4.2-2.6 10.7-5.9 15.5-8.6 495.6-272.1 684 171.2 991.5 624.4 70.5 103.4 115.4 181.1 164.4 293.1 286 654.1 572.4 653.4 1211 1253.4 477.2 448.5 354.7 361.6 897.6 658.6 120.2 65.8 242.2 134.3 368.3 181.1-18.5-27.7 4.2-2-36.4-43.5l-785.2-656c-476-388.6-303.8-142.2-827-718.6l-651.9-792.3c-354.7-455.2-656.1-1021.7-1046-1449.8-360.6-395.8-908.5-1176.4-1261.3-1629.5zm-15899-1864.9-31.1 16.5zm1951.4-5874.8c-316.3 95-436.4 258.4-1104.2 420.6-196.1 48.1-383.2 75.8-588.9 107.5l-452 68.6c-25.1 2.6-51.4 2-74.7 4.6l-87.3 21.1c235 87.6 518.4 85.5 728.8 32.1 64-16.4 80.7-12.5 141.1-29.6 212.8-61.4 130.3-110.7 505.2-164.8 452-66 626.5-238 694.7-253.8 104.6-25.1 8.4 63.2-35.2 261.5-21.5 99.5-1.8 154.8 3.6 253.7 19.2 358.3 224.9 352.3 434.8 783.8 260.2 534.2 143.5 108.7 315.9 869.5 171.2 752.3 99.3 251 433 785.2 86.2 137 141.8 264.2 193.3 426.2 84.3 266.8 229 145.5 387 809.6 77.2 322.1 139.3 293.1 169.9 417.6l40.1 233.2c22.7 85 49 148.2 71.2 237.8 25.1 100.8 17.3 132.4 55 225.3 84.4 204.2 203.4 340.6 85.1 719.4-94.4 303-81.8 425.6-130.2 563.9-49.6 141.7-81.9 357.8 10.2 502 15.5-182.5 135.1-443.4 156-511.2l132.6-604.2c59.7-251.6-217.9-1243-296.9-1390.6-241.6-450.6-148.4-608-248.9-907.1l-486.3-776.6c-212.9-332-282.2-235.1-428.8-808.2-48.5-190.4-330.8-934.1-415.8-1070.5-50.2-80.3-91.5-117.9-144.1-197.6-100.5-155.4-105.3-266.1-125.7-463.1-18.5-182.4-6-343.9 61.5-565.9zm-4934 4653.4m84.9-25.7m18841 6513.3c1.8 3.3 8.3-1.3 9.5-4.6zm0.6-85m0 0-7.8-59.9zm-23660-9156.6m5255.8-1063.1c-235-25-691.1 264.3-886.6 388.9-817.2 518-747.2 675.4-1239.4 262.5-376.1-316.2-276.9-569.8-526.9-669.3 68.8 281.3 144.8 618 320.1 824.8l365.4 459.7c59.8 80.4 132.2 160.7 192 235.8 81.9 102.8 158.4 110 254.7 200.9 237.4 222.6 627.3 325.3 900.5 179 197.2-106.1 327-131.2 555.4-138.5 818.5-27.2 967.4 290.4 1242.5 400.3l-19.8-32.3c-155.5-218.7-394.1-407-644-493.9-309.1-107.3-1341.6 253.2-1601.7 106.4l-694.9-537.4c72.9-61.3 147.1-81.1 236.8-118 597.2-245.9 530.2-377.6 1098.7-775.6zm10743 5980.8 36.5 46.1zm577.2-1549.6c-28.7-99.5-152.5-203.5-223.6-281.9l-749.4-845.7c-208.7-270.8-483.8-614.6-733.2-854.3-395.3-381.4-744.5-914.3-1045.9-1109.9-127.4-82.3-246.4-135.6-351.6-233.1-120.8-112-200.4-314.2-254.8-477.5-119.7-363-616.1-1321.4 312.5-851.9 329.4 166.6 84.3 84.9 544.7 255.5 680.5 252.8 352.2 84.2 755.2 418.1 281.1 232.5 140.5-167.3 583.7 488.7l937.1 1190.2c-45.5-185.7-281.1-434.7-425.9-873.4l-274.5-530.9c-291.3-397.2-1004-795-1445.3-1018.9-427-216.6-1412.9-508.9-1387.9-1050.4 2.9-61.3 8.9-166.7 22.6-222.7 75.9-311.6 116.6-178.6-73-600.1-120.3-267.5-213-473.7-477.9-654.1 33.5 135.7 165.1 390 230.3 533.6l206.4 567.8c43.7 239.8-22.6 441.4 8.5 676.6 26.4 200.2 83.2 428.1 58.7 648.8-31.6 280.7 61.1 362.4 63 624.6 1.8 177.2-6.6 152.8 65.2 305 43.7 93.5 82.5 177.2 93.9 289.1 13.8 136.4-7.6 550.1-43.5 705-94.3 401.8 39.6 341.2 110.2 620.5 74.8 297.1 47.3 556 225.6 876.8l108.3 281.3c127.4 279.9 432.4 737.1 611.8 1026.9 106.5 171.9 260.8 303 441.4 440 195.5 148.2 320.5 255.5 500.5 407 246.9 208.1 748.1 694.2 1029.7 798.9l-49-58.7c-15-15.8-40.1-42.1-53.3-55.3-505.3-511.7-1380.2-1344.9-1691.2-1884.4-50.8-88.3-89.1-191-132.8-289.2-178.8-399.2-381.6-603.3-564.7-1181l-190.8-640.3c-38.9-127.8-80.2-197-27.6-367.6 225.4 90.2 169.9 297.7 416.2 329.3 397.6 51.3 566.9 340.4 915.5 645.4 141.7 123.8 242.8 271.3 384.5 406.4 272.1 259.5 464.7 519.6 736.2 789zm-4432.7 60.9c-20.3 65.2 35.3 17.8 13.8 5.3-0.6-0.7 7.7-76.5-13.8-5.3zm15.5-136.4c-39.4 130.5-13.1 42.2 0 85 41.3-135.1 11.4-38.2 0-85zm-5725.2-2211.6 35.9 46.1zm5725.2 2211.6-1.8-20.4c0 4.6 0.6 13.8 1.8 20.4zm-3276-9124.1c-16.1 189.1 36 415 83.2 571.2 28.8 93.5 48.5 174.5 87.4 272l65.2 113.3c145.3 163.4 174 52.7 294.8 328 39.5 90.9 71.2 169.3 114.3 256.9l272.1 489.4c55 75.1 119.6 135.1 181.2 199 202.1 208.1 256.5 179.7 577.6 248.8 115.4 25.1 230.8 77.7 343.2 119.9 162.7 61.2 615.9 157.9 636.8 204.7 39.5 86.3-254.6 435.5-298.2 546.9 209.3 15.1 381.4-232 557.2-219.5 50.3 448.6-102.2 244.4 161 847.8l110.1 408.4c40.7 249.7-78.8 559.3 35.5 938.1 83.2 275.4 21.1 785.3-101.4 963.2-99.3 144.3-220 181.2-323.4 268.2 184.7 19.7 274.4-84.4 410.1-75.2-177.5 580.4-130.2 563.9-95.5 988.2 15 174.6 20.5 411.7 70.1 579 85 287.3 58.7 593.6 89.3 738.5l37.1 149.6c104.5-342 132-487.6 165.4-770.8 37-313.6-18.6-390.7-58.1-648.9-173.1-1127.8 155.3-594.3 163.3-2153 1.2-240.4-34.1-438.1-77.8-659.4-51.5-264.8-147.2-480.2-234-723.3-23.3-64.6-34.1-77.1-52.6-141.6-26.9-96.9-55.1-212.8-62.9-327.4-26.4-396.6 204.4-608.8 68-718.8-239.8-193.6-1197.5-26.1-1777-624.1-280.5-289.8-1219.4-1554.5-1378.6-2012.3-25.1-71.8-22.7-98.8-63.4-156.8zm13611 11796m-5175.3-5192.7c-4.7 86.3 22.8 113.3 51.5 205.5 104.1 332.6 22.2 243.7 265.6 557.3 364.8 468.9 1066.8 1061 1539.3 1499l333.1 285.9c-25.8-89.6-311-394.6-388.2-490.1-73.5-90.9-101.6-70.5-74.2-193.7 700.2 260.1 250.6 269.4 858.1 488.7l902.9 486c174 97.4 302.6 269.3 467.1 404.3 205.7 168 609.4 691 660.8 936 58.1 277.4 341.6 854.4 559.3 1013.8l-137-414.4c-52.1-151.5-91.6-280.6-155-426.2l-160.3-401.8c-160.3-361-502.4-826.6-774.5-1086.8-121.4-115.3-235.6-249-342-303-374.4-189-545.4-290.4-967.5-471.5-218.3-93.5-477.8-363.5-871.3-523.5-605.7-246.9-378.4-87.5-846.7-537.4-514.3-493.3-476-511.8-921-1028.1zm-19923-4326.6c-29.88 97.5-10.17 6.6 0.01 85 171.01 46.7 208.03-153.5 395.13-365 1069.7 397 956.04 93.3 1220.9 8.9 84.89-27.7 300.73 0.6 417.32-15.9 309.1-44.9 178.14-149.6 740.76-199.1 401.8-35 1203.5-109 1600.5-89.3 1018.2 49.9 970.3-148.4 1589.8-157.8 139.3-2 263.6-4 394.6-25.1l289.9-42.2c86.7-20.5 41.3 17.1 91.5-52.7-367.1-136.3-668.5-200.2-972.2-186.9l-436.5 16.5c-172.2 8-249.9 24.5-437 15.3-313.3-15.8-617.1-77.6-911.8-52.5-306.1 25.1-569.2 87.7-855 116.8-264.2 27.7-605.6 29.1-835.79 116.1-351.53 131.8-67.54 115.3-588.28 194.5-23.32 3.3-84.3 18.4-104.63 25.7-5.38 2-48.42 19.1-49.02 19.1-120.76 57.3-267.21 210.2-395.75 235.9-67.56 13.2-392.82-26.9-466.96-49.9-156.66-49.4-270.89-191-419.13-30.9-62.16 66.5-235.49 325.5-268.35 433.5zm19273 7042.9 9-4.6c-0.6 0-10.8 1.3-9 4.6zm-38.8-42.8 9.5-4.7c-0.6 0-10.7 1.4-9.5 4.7zm-53.9-77.1 36.5 46.7zm7040.1 2472.2m-18329-6919.9-31 16.5zm54.5-8.5-54.5 8.5zm-872.5-608.6m0 0c156.1 11.2 922.5-201.8 1178.3-427.1 174-153.5 358.7-458.6 363.4-712.9 1.8-71.8 2.4 27-1.2-41.5l-5.4-40.2c-57.3 187.8-188.2 408.5-293.4 506-58.6 54.1-123.8 102.2-185.4 145.7-68.7 48.7-836.3 383.6-1056.3 570zm7210.5 2421.5m7990.7 2825.8c1.2 3.2 7.8-2 9-5.3zm-31.1-68.6m0 0-38.2-42.8zm-130.9-162.6c22.7 78.3 14.9 66.5 92.7 119.8-22.8-77.7-15-66.5-92.7-119.8zm-12224-4596.4c16.2 36.3 99.9-7.9 29.3-3.9-0.6 0-55.6-53.4-29.3 3.9zm-377.9-453.1 9-5.3c-0.6 0.7-10.8 2-9 5.3zm-30.5-68.5m-400.7-546.7c-10.2 165.3 79.5 182.4 178.2 285.2 83.7 86.9 110.1 208.1 222.5 261.5-26.4-105.4-110.7-189.1-183-283.3-61-79-149-213.4-217.7-263.4zm2288.7 195.8c-165 49.4-127.9 117.9-325.2-13.1-79.6-53.4-254.7-88.9-401.2-142.9l200.3 273.4c-247.5-67.2-217.6 123.2-480.1 48.2-61.6-17.8-65.8-31-124.3-18.5-5.4 1.4-11.4 4.6-16.8 6l-47.8 21.7c-106.4 44.2-28.7-14.5-112.4 50.1 38.9 56 99.9 148.9 178.8 176.5 99.3 34.3 153.7-38.2 234.4-72.5 132.7-56 358.7 13.8 483.6-83.1-28.1-114.6-48.4-72.5-76.5-171.3 148.2-26.4 181.7 11.2 363.5 78.3 47.2-49.4 85.5-84.3 123.7-152.8zm-2288.7-195.8-15.6-34.3zm-15.6-34.3m9945.4 3522.3m-9968.1-3701.5 9.5-5.3c-0.6 0.7-10.7 2-9.5 5.3zm9914.3 3625.1c18 67.9-6.5 35 53.8 76.4-17.9-67.8 7.2-34.9-53.8-76.4zm-9195.1-3528.4c-86.1-300.4-541.1-320-559.1-694.9-9.6-195 3.5-146.2-95.8-287.9 49-160.1 65.8-229.9 132.7-349.1 148.9 55.3 142.9 77 212.9 181.7 65.2 96.2 110 138.4 180.6 220 11.3-198.9-168.1-316.8-277.5-443.9 58-48.8 116.5-89.7 170.9-135.8 276.3 102.7 308.6 334.6 462.3 513.1 13.7-229.2-236.8-398.5-346.3-555.3 61.6-101.4 160.2-120.6 254.7-123.9 83.7-3.3 66.4-7.9 177.6 77.7 322.3 247.7 193.8 264.2 301.4 432.8 9-102.1-23.3-193.7-59.8-286.6-70.6-177.2-156.7-142.9-162.7-251.6 99.8-13.2 196.1 9.8 264.3 88.2 133.9 154.1-34.7 11.2 219.4 222 104.7 86.3 117.9 134.4 165.1 250.3 43.7 108 37.1 197.6 98.7 285.9 3.6-58-14.4-152.9-27.5-218.7-22.8-116-54.5-100.8-48.5-207.5 330 34.8 138.7 96.1 363.6 130.3l386.2 119.8c-243.4-165.9-299.5-94.8-721.7-414.2-68.8-52-143.5-92.8-230.8-150.8-360-237.1-291.9-361.6-667.9-247.6l-431.1 115.4c-246.9 102.2-418.5 174.7-487.8 531.1-44.2 224.7 33 328.1 43.8 529.7 11.4 213.4-153.6 314.9-21.4 521.7 28.6-321.5 131.5-176.6 306.1-134.4 269 65.8 236.8 172.5 397.6 282.5zm53.9 76.4m0 0-15.6-34.2zm-15.6-34.2-38.3-42.2zm750.4 79.5c17.9 40.2 143.5 5.9 32.3 0.7-3 0-59.2-60-32.3-0.7zm819.1 190.9 42.5-40.2zm55-93.6c-20.3 65.2 35.3 17.8 13.8 5.3-0.6-0.7 7.7-76.4-13.8-5.3zm8500.2 3014.8m-8026.2-3806.1c-7.2 123.9 65.2 270.8 26.4 410.4-26.9 96.9-78.9 108.1-96.9 185.8-17.9 79.7 27 103.5-1.7 230.6 116-40.2 64-87 90.2-198.3 43.6-187.1 279.2-203-18-628.5zm-9575.8-2958.5c142.35 52.7 247.55 42.1 355.15 17.1 291.8-67.3 148.9-93.6 477.1-99 140.5-2 620.6-199 776.6-247.2 90.3-28.3 223.6-37.6 323.4-53.4 472.4-72.6 892.1-122.7 1377-72.8 444.8 46 1739.3 300.7 2055.6 234.8 129.1-26.4 126.1-4.7 166.8-57.4-102.9-111.3-232.7-123.8-376.8-151.4-135.7-26.3-335.4-83-465.1-133-336.7-129-588.4-134.3-889.7-217.9-276.9-77-569.2-50.6-827.5-80.1l-911.9-223.2c-127.3-47.4-149.5-317.5-661.2 118.1-484.8 413.8-659.4 335.5-856.7 541.7-75.3 79.1-230.7 137.1-383.8 219.5-35.8 19.7-303.65 150.2-158.95 204.2zm7310.4 2600.6m371.3-32.3m0 0-15.6-34.3zm896.8 105.2m-525-223.2 9-5.3c-0.6 0.6-10.8 2-9 5.3zm0-85m1522.4 593.2-15.6-34.2zm-15.6-34.2c-16.7-112.7 24.5-57.4-55-139.7-23.3-23.7-92.1-73.8-129.8-99.4 31.7 129.1 67.6 159.4 184.8 239.1zm1963.6 587.2m-5448.3-4469.4c-62.2-23-80.1 11.3-116 42.2-8.3 139 112.4 207.5 253.6 350.4 247 250.3 327.7 467.7 740.3 616.5 190.7 69.1 343.2 140.9 482.6 246.9l393.4 274.7c496.3 312.8 781 766 1139.8 908.9-3-5.3-10.2-7.3-9.6-15.9l-583.1-659.9c-136.3-154.8-976.5-800.3-1130.2-872-629.6-295-533.9-334.6-1085.3-811.4-61.6-53.4-20.9-56.7-85.5-80.4zm3090.7 1119.3m-2840.4-2107.5-342.7-322.7c-358.2-314.2-802.5-604.6-875.5-1096.7-138.7-51.4-229-89.6-298.4-305-52.1-160-46.7-236.5-123.9-399.8-37.1-77.8-214.1-310.9-214.7-351.8-4.8-156.8 281 121.2 346.2 152.1-55.6-104-244.6-258.8-370.2-499.9-78.9-151.5-20.4-133.7-180.6-411.7-35.3-61.3-40.7-90.3-80.8-147.5-11.3 134.3 96.5 886 133 1033.6l248.8 693.6c293.1 598.1 79.1 604.1 360.2 1229.2l111.9 236.5c77.1 162 229.7 589.6 287.1 672.6 10.8-116 38.2-270.2 37-382.1-3.1-342-162.1-197-268-619.2-31.7-125.2-70.6-205.6-19.8-372.3 156.1 17.1 67.6-57.3 312.7 148.2 186.6 156.7 794.8 690.2 937.7 742.9zm5185.9-833.2c-6 98.2 4.8 64.6 33.5 151.6 139.4 418.9 273.4 631.7 434.3 996.6 385.8 872.8 872.6 1352.3 1480.2 2021.5 300.8 331.3 520.3 909 747 1017-19.8-67.9-113.1-187.7-154.9-256.2-315.2-513.2-334.4-735.8-848.7-1301.6-291.3-320.8-651.3-901.8-887-1281.8l-706.3-1209.4c-47.3-81.7-27.6-86.3-98.1-137.7zm-5185.9 833.2 36.5 46.1zm-1509-2323.9 35.9 46.1zm-631.6-1059.1m7326.5 2549.8m-1174.4-634.8 9.6-5.3c-0.6 0-10.8 1.4-9.6 5.3zm-3237.7-8911.3c-2.4 38.2 379.5 2039.5 405.3 2438.1l24.7 1135c-44.7 624.6-273 963.9-141.3 1609.5 30.5 148.9-5.9 243.7 19.2 372.2 25.2 124.5 92.1 202.9 84.4 336.6-423.4-156.7-235-185.1-660.2-532.1-196.1-160.8-122.6-175.3-255.4-307.6-159-158.8-143.5-158.8-244.6-334.7-162.7-281.2-244-401.1-167-801.7 58.6-308.3 50.2-416.3 41.1-703.6-3.6-110.6 11.4-137.6-20.3-222.6-39.5 128.5-23.9 165.3-70.5 314.9-78.3 255-137.4 658.8-118.8 915.7 27.6 376.2 207 579.1 167 1036.3 103.5 38.2 264.3 111.9 351 169.9l595.1 738.3c269.1 344.5 645.3 644.2 1001.7 942.5 179.4 150.2 385.7 286.5 600.3 416.3 309.2 187.6 364.8 175.8 587.2 424.1 85.6 95.5 136.4 155.4 232.7 234.5 300.8 248.9 492.1 491.3 791.1 695.5-27.5-110.7-231.4-395.2-315.8-487.5l-434.1-422.2c-234.4-281.9-595.1-663.2-904.8-846.3-272.1-160.7-709.8-603.3-852.2-874-175.8-333.3-131.6-348.5-94.6-608.1 29.9-214.7-13.8-438-110.7-620.5-169.3-321.5-175.8-196.3-28.9-600.8 102.2-280.7 151.8-510.6 173.3-754.4l33.8-1359c-69.6-794.5-337.5-1353.8-561.3-2033.6-31.7-96.8-72.4-191-127.4-270.7zm-2997.6 6510.1 9-5.3c-0.6 0.7-10.8 2-9 5.3zm0-85m0 0-7.8-59.9zm-7.8-59.9-15-34.3zm-53.3-162.1c-5.9 96.8-8.9 60.6 38.3 127.8 5.4-97.5 8.4-60.6-38.3-127.8zm0 0-15.5-34.2zm-15.5-34.2-15.6-34.3zm-15.6-34.3m2175.7-3145.5 4.1-60zm-3398.2-1888 9.5-5.3c-0.6 0.7-10.7 2-9.5 5.3zm0.5-85m0 0-7.7-59.9zm3138.6-4523.2c-120.8-13.2-287 17.8-407.8 37.6-79.5 12.5-116.6 24.4-193.1 42.9-602 143.7-358.1 334.7-1081.4 557.5-373.1 114.7-193.1 190.5-513.6 359.8-179.3 94.3-118.9 105.5-363.4 179.3-263.7 79.8-169.8 63.3-378.5 145.7-138.1 54.7-652.8 249.1-668.3 453.4l180.1 627.1c165.7 464.4-203.2 493.5 145 1644.3 28.2 93.5 92.8 356.4 134.7 415.7 19.6-225.4-156.2-496.7-100.2-1243.1 56.1-743.2-245.2-453.2 29.7-1058.1 47.8-104.7 68.7-97.5 143.5-152.8 141-104.2 93.2-234.6 211.5-388.8 220.6-287.9 277.5 32.9 737.7-548.9 198.5-251 224.2-249.7 459.7-308.4 141.7-35 219.4-75.8 350.9-121.3 120.8-42.2 202.7-94.2 305.5-179.3 61.6-50.7 81.9-86.3 133.3-133.1 50.8-46.7 101.7-67.2 166.2-102.8 311.5-170.7 511.8-60 708.5-226.7zm1173.2 3507.1-15.6-33.6zm-15.6-33.6m-1157.6-3473.5m264.2-3059.5c-403.6-149.4-931.5-32.7-1291.5-166.4 178.3 722.7 511.3 331.9 703.2 403 125 46.1 12 203.6 153.7 256.3 116.6 43.4 313.3-25.8 340.8-15.9 136.3 50.7 253 185.1 192 384.7-28.1 91.6-182.9 144.9-79.4 447.3 54.4 159.4 111.8 121.9 208.7 226.6 61.5-275.4 155.9-665.4 175.6-925.6 22-292.6 32.8-258.3-88.6-355.8-40.6-32.9-284.6-243-314.5-254.2zm-1611.2 710.5 9.6-5.3c-0.6 0-10.8 1.4-9.6 5.3zm-53.8-77 36.5 46.1zm0 0c-67.6-126.5-300.8-331.3-404.3-417.6-159-131.7-329.5-245.7-517.2-355.7-265.5-154.7-284.7-177.1-566.2-130.3-276.3 46.2-340.2 17.2-590.2-152.7 37.7 129.8 388.1 457.1 563.3 522.3l117.2-126.5c245.7 90.2 210.5 226.6 416.2 324 120.8 9.9 69.9-195 481.3 34.8zm-1727.1-1864.7c-154.3-57.3-282.8-47.4-455.6-111.2l-916.1-362.8c-96.8-20.4-366.5-73.1-452.6-61.2-31.7 56.7-69.9 97.5-69.9 185.2 0 93.5 19.8 88.9 77.8 150.8 71.7 77.7 454.5 551.3 493.3 369.5 34.6-161.4-386.3-198.2-218.9-332.7 31.1-25 47.8-24.4 84.3-28.3 84.3-8.6 136.3 21 235 48 185.3 51.4 223-25.1 424.5 109.3 160.3 106.7 209.3 169.9 426.3 151.4 124.4-10.5 278.6-38.9 371.9-118z" fill="#100f0d" fill-rule="evenodd"/>
</svg>
